<mxfile host="app.diagrams.net" modified="2023-12-12T04:35:26.595Z" agent="Mozilla/5.0 (Windows NT 10.0; Win64; x64) AppleWebKit/537.36 (KHTML, like Gecko) Chrome/119.0.0.0 Safari/537.36" etag="RTNLV4bt9v0elK6FnI8s" version="22.1.7" type="github">
  <diagram name="Page-1" id="pgI-A3cEkF9LY7kjQDcD">
    <mxGraphModel dx="794" dy="456" grid="1" gridSize="10" guides="1" tooltips="1" connect="1" arrows="1" fold="1" page="1" pageScale="1" pageWidth="850" pageHeight="1100" math="0" shadow="0">
      <root>
        <mxCell id="0" />
        <mxCell id="1" parent="0" />
        <mxCell id="39WbSG_X7_8rdLJgG9AC-3" value="" style="edgeStyle=orthogonalEdgeStyle;rounded=0;orthogonalLoop=1;jettySize=auto;html=1;" edge="1" parent="1" source="39WbSG_X7_8rdLJgG9AC-1" target="39WbSG_X7_8rdLJgG9AC-2">
          <mxGeometry relative="1" as="geometry" />
        </mxCell>
        <mxCell id="39WbSG_X7_8rdLJgG9AC-1" value="START" style="strokeWidth=2;html=1;shape=mxgraph.flowchart.terminator;whiteSpace=wrap;" vertex="1" parent="1">
          <mxGeometry x="350" y="20" width="145" height="70" as="geometry" />
        </mxCell>
        <mxCell id="39WbSG_X7_8rdLJgG9AC-5" value="" style="edgeStyle=orthogonalEdgeStyle;rounded=0;orthogonalLoop=1;jettySize=auto;html=1;" edge="1" parent="1" source="39WbSG_X7_8rdLJgG9AC-2" target="39WbSG_X7_8rdLJgG9AC-4">
          <mxGeometry relative="1" as="geometry" />
        </mxCell>
        <mxCell id="39WbSG_X7_8rdLJgG9AC-2" value="V=(4/3)*phi*r^3" style="shape=parallelogram;perimeter=parallelogramPerimeter;whiteSpace=wrap;html=1;dashed=0;" vertex="1" parent="1">
          <mxGeometry x="337.5" y="140" width="170" height="60" as="geometry" />
        </mxCell>
        <mxCell id="39WbSG_X7_8rdLJgG9AC-7" value="" style="edgeStyle=orthogonalEdgeStyle;rounded=0;orthogonalLoop=1;jettySize=auto;html=1;" edge="1" parent="1" source="39WbSG_X7_8rdLJgG9AC-4" target="39WbSG_X7_8rdLJgG9AC-6">
          <mxGeometry relative="1" as="geometry" />
        </mxCell>
        <mxCell id="39WbSG_X7_8rdLJgG9AC-4" value="input r = 8" style="shape=parallelogram;perimeter=parallelogramPerimeter;whiteSpace=wrap;html=1;dashed=0;" vertex="1" parent="1">
          <mxGeometry x="342.5" y="250" width="160" height="60" as="geometry" />
        </mxCell>
        <mxCell id="39WbSG_X7_8rdLJgG9AC-9" value="" style="edgeStyle=orthogonalEdgeStyle;rounded=0;orthogonalLoop=1;jettySize=auto;html=1;" edge="1" parent="1" source="39WbSG_X7_8rdLJgG9AC-6" target="39WbSG_X7_8rdLJgG9AC-8">
          <mxGeometry relative="1" as="geometry" />
        </mxCell>
        <mxCell id="39WbSG_X7_8rdLJgG9AC-6" value="V=(4/3)*22/7*8^3" style="html=1;dashed=0;whiteSpace=wrap;" vertex="1" parent="1">
          <mxGeometry x="570" y="250" width="130" height="60" as="geometry" />
        </mxCell>
        <mxCell id="39WbSG_X7_8rdLJgG9AC-12" value="" style="edgeStyle=orthogonalEdgeStyle;rounded=0;orthogonalLoop=1;jettySize=auto;html=1;" edge="1" parent="1" source="39WbSG_X7_8rdLJgG9AC-8" target="39WbSG_X7_8rdLJgG9AC-10">
          <mxGeometry relative="1" as="geometry" />
        </mxCell>
        <mxCell id="39WbSG_X7_8rdLJgG9AC-8" value="hasil akhirnya adalah" style="shape=parallelogram;perimeter=parallelogramPerimeter;whiteSpace=wrap;html=1;dashed=0;" vertex="1" parent="1">
          <mxGeometry x="551.25" y="380" width="167.5" height="60" as="geometry" />
        </mxCell>
        <mxCell id="39WbSG_X7_8rdLJgG9AC-14" value="" style="edgeStyle=orthogonalEdgeStyle;rounded=0;orthogonalLoop=1;jettySize=auto;html=1;" edge="1" parent="1" source="39WbSG_X7_8rdLJgG9AC-10" target="39WbSG_X7_8rdLJgG9AC-13">
          <mxGeometry relative="1" as="geometry" />
        </mxCell>
        <mxCell id="39WbSG_X7_8rdLJgG9AC-10" value="V= 2.145,5238096" style="shape=parallelogram;perimeter=parallelogramPerimeter;whiteSpace=wrap;html=1;dashed=0;" vertex="1" parent="1">
          <mxGeometry x="350" y="380" width="160" height="60" as="geometry" />
        </mxCell>
        <mxCell id="39WbSG_X7_8rdLJgG9AC-13" value="FINISH" style="strokeWidth=2;html=1;shape=mxgraph.flowchart.terminator;whiteSpace=wrap;" vertex="1" parent="1">
          <mxGeometry x="130" y="375" width="140" height="70" as="geometry" />
        </mxCell>
      </root>
    </mxGraphModel>
  </diagram>
</mxfile>
